<svg xmlns="http://www.w3.org/2000/svg" width="120.137" height="120.137" viewBox="0 0 120.137 120.137">
    <defs>
        <style>
            .cls-1{fill:#fff}.cls-2{filter:url(#Tracé_205)}.cls-3{filter:url(#Tracé_198)}
        </style>
        <filter id="Tracé_198" width="120.137" height="120.137" x="0" y="0" filterUnits="userSpaceOnUse">
            <feOffset/>
            <feGaussianBlur result="blur" stdDeviation="2.5"/>
            <feFlood flood-color="#fff" flood-opacity=".651"/>
            <feComposite in2="blur" operator="in"/>
            <feComposite in="SourceGraphic"/>
        </filter>
        <filter id="Tracé_205" width="64.423" height="95.669" x="27.862" y="21.22" filterUnits="userSpaceOnUse">
            <feOffset/>
            <feGaussianBlur result="blur-2" stdDeviation="2"/>
            <feFlood flood-color="#fff" flood-opacity=".651"/>
            <feComposite in2="blur-2" operator="in"/>
            <feComposite in="SourceGraphic"/>
        </filter>
    </defs>
    <g id="User" transform="translate(7.5 7.5)">
        <g id="Groupe_1" class="cls-3" data-name="Groupe 1" transform="translate(-7.5 -7.5)">
            <path id="Tracé_198-2" d="M83.333 7.176A52.568 52.568 0 1 0 135.9 59.744 52.627 52.627 0 0 0 83.333 7.176zm0 100.756a47.859 47.859 0 0 1-22.644-5.677l8.858-2.955a2.186 2.186 0 0 0 1.432-1.546l2.028-8.113a2.193 2.193 0 0 0-.626-2.129 24.127 24.127 0 0 1-7.36-15.289 2.191 2.191 0 0 0-2.186-2.015h-.675a1.948 1.948 0 0 1-1.932-1.7L59.2 60.231a1.931 1.931 0 0 1 .473-1.529 2.257 2.257 0 0 1 1.888-.657 2.188 2.188 0 0 0 2.173-2.462c-.267-2.12-.959-8.056-.959-10.071 0-6.391 1.257-12.139 16.45-12.292a2.181 2.181 0 0 0 1.253-.407c4.586-3.287 9.522-3.729 13.742-3.729 5.769 0 9.843 1.752 12.108 5.213 2.7 4.127 1.546 6.251.285 7.6l-2.068 2.068a2.186 2.186 0 0 0-.64 1.441l-.5 10.352a2.186 2.186 0 0 0 2.16 2.3 1.933 1.933 0 0 1 1.45.67 1.9 1.9 0 0 1 .46 1.511l-1.034 8.275a2.01 2.01 0 0 1-2.133 1.7 2.191 2.191 0 0 0-2.186 2.015 23.951 23.951 0 0 1-7.71 15.6 2.183 2.183 0 0 0-.661 2.16l1.945 7.776a2.195 2.195 0 0 0 1.428 1.535l8.858 2.953a47.89 47.89 0 0 1-22.649 5.679zm27.5-8.674L99.66 95.535l-1.34-5.367a28.657 28.657 0 0 0 7.98-15.827 6.347 6.347 0 0 0 4.5-5.288l1.034-8.275a6.326 6.326 0 0 0-3.956-6.663l.372-7.657 1.516-1.516c2.361-2.51 4.319-6.812.237-13.046-3.128-4.775-8.437-7.2-15.775-7.2-2.883 0-9.524 0-15.718 4.149-17.7.381-20.107 8.621-20.107 16.66 0 1.84.442 5.945.736 8.481a6.328 6.328 0 0 0-4.28 6.786l1.034 8.275a6.343 6.343 0 0 0 4.99 5.41 28.847 28.847 0 0 0 7.579 15.332l-1.433 5.734-11.198 3.735a48.19 48.19 0 1 1 55 0z" class="cls-1" data-name="Tracé 198" transform="translate(-23.27 .32)"/>
        </g>
        <g class="cls-2" transform="translate(-7.5 -7.5)">
            <path id="Tracé_205-2" d="M432.525 168.488l19.789 7.291 26.385-5.208 4.513-4.513-10.068-3.819-2.083-7.985 7.638-9.027v-7.291l4.513-1.736 1.736-11.8-4.86-6.943 3.125-7.985 1.736-5.208-1.736-5.9-10.068-6.254-15.623 1.736-5.208 2.083-13.887 5.555L435.3 106l3.125 13.54-5.9 4.86 2.777 11.8 3.125 1.736 4.166 12.151 2.777 6.943-2.777 5.208-10.068 3.819z" class="cls-1" data-name="Tracé 205" transform="translate(-398.66 -64.89)"/>
        </g>
    </g>
</svg>
